<svg width="24" height="24" viewBox="0 0 24 24" fill="none" xmlns="http://www.w3.org/2000/svg">
<path
d="M19.1677 6.04363C19.82 5.80713 20.1445 5.72243 20.3227 5.69163C20.3241 5.7503 20.3234 5.79503 20.3205 5.82583C20.0653 8.51423 18.9444 15.1285 18.368 18.2063C18.2338 18.9268 18.1304 19.27 17.433 18.8608C16.9754 18.5913 16.5618 18.2525 16.1174 17.9621C14.6599 17.0062 12.5743 15.5839 12.7459 15.6697C11.3115 14.7237 11.9121 14.1451 12.7129 13.3729C12.8416 13.2486 12.9769 13.1188 13.1089 12.9813C13.1683 12.9197 13.4576 12.6513 13.8646 12.2718C15.1714 11.0574 17.697 8.70893 17.7608 8.43723C17.7718 8.39323 17.7806 8.22603 17.6827 8.13913C17.5837 8.05113 17.4374 8.08083 17.3329 8.10503C17.184 8.13877 14.8102 9.70773 10.2115 12.8119C9.53828 13.2739 8.92815 13.4991 8.38108 13.4873L8.38658 13.4906C7.66608 13.2365 6.94778 13.0176 6.22618 12.7976C5.75098 12.6535 5.27578 12.5083 4.79618 12.3521L4.45738 12.2443C9.43708 10.0751 12.7536 8.64733 14.4157 7.95543C16.8291 6.95113 18.2613 6.37363 19.1677 6.04363ZM21.833 3.92283C21.5989 3.73736 21.3259 3.60725 21.0344 3.54223C20.8144 3.48943 20.6054 3.47293 20.4481 3.47623C19.9234 3.48503 19.3613 3.63353 18.4175 3.97563C17.455 4.32543 15.9766 4.92383 13.5709 5.92373C11.8747 6.62993 8.49768 8.08413 3.44868 10.2841C3.00428 10.4612 2.59838 10.6625 2.27718 10.9001C1.98018 11.1212 1.56548 11.5161 1.48958 12.1211C1.43238 12.5787 1.56548 13.0011 1.83608 13.3344C2.07148 13.6237 2.37288 13.7997 2.60278 13.9108C2.94378 14.0758 3.40358 14.2199 3.80728 14.3464C4.43758 14.5444 5.06568 14.7457 5.69818 14.9393C7.65398 15.5377 9.26438 16.0305 11.0354 17.1987C12.3345 18.0545 13.6094 18.9477 14.9107 19.8013C15.3859 20.1126 15.8292 20.4701 16.3187 20.7583C16.8555 21.0718 17.5353 21.3589 18.3647 21.283C19.6165 21.1675 20.2677 20.0158 20.5317 18.61C21.1048 15.541 22.2444 8.83543 22.5117 6.03483C22.5361 5.70986 22.5225 5.38314 22.471 5.06133C22.4058 4.6162 22.1786 4.21078 21.833 3.92283Z"
fill="currentColor"/>
</svg>
