<svg width="24" height="24" viewBox="0 0 24 24" fill="none" xmlns="http://www.w3.org/2000/svg">
<path d="M2.72713 11.1716C8.49846 8.65698 12.3474 6.99891 14.2738 6.19738C19.7727 3.91048 20.9145 3.51338 21.6592 3.50018C21.8242 3.49688 22.1894 3.53758 22.427 3.73118C22.6272 3.89288 22.6822 4.11288 22.7086 4.26688C22.735 4.42088 22.768 4.77178 22.7416 5.04568C22.4446 8.17738 21.1543 15.7751 20.4976 19.2819C20.2204 20.7647 19.6748 21.2619 19.1446 21.3114C17.9951 21.417 17.1228 20.5524 16.0096 19.822C14.2661 18.6791 13.2816 17.9674 11.5898 16.8531C9.63513 15.565 10.9023 14.8566 12.0166 13.6994C12.3081 13.3969 17.3736 8.78898 17.4726 8.37098C17.4836 8.31818 17.4957 8.12348 17.3802 8.02118C17.2647 7.91778 17.0942 7.95298 16.9699 7.98158C16.7947 8.02118 14.0109 9.86111 8.61873 13.5014C7.82746 14.044 7.11173 14.3084 6.47153 14.2945C5.76423 14.2791 4.40353 13.8952 3.39373 13.5663C2.15293 13.1626 1.16733 12.9503 1.25313 12.265C1.29787 11.9086 1.7892 11.5441 2.72713 11.1716Z" fill="currentColor"/>
</svg>
